<?xml version="1.0" encoding="UTF-8"?>
<svg id="LOGO" xmlns="http://www.w3.org/2000/svg" viewBox="0 0 4666.69 3935.99">
  <defs>
    <style>
      .cls-1 {
        fill: #fff;
      }
    </style>
  </defs>
  <g id="Calque_9" data-name="Calque 9">
    <circle cx="3214.07" cy="1496.75" r="1399.28"/>
    <path class="cls-1" d="M2931.25,1529.72c10.75-2.15,18.98-22.28,26.49-30.93,35-49.69,85.01-88.93,141.72-110.32,17.47-7,36.97-10.54,53.7-18.93,24-11.18,28.88-38.42,28.75-62.47.3-111.98.53-223.99-.05-335.97-.23-10.81-1.02-22.44-4.07-32.5-4.91-18.91-19.96-29.27-38.33-30.26-62.29-4.97-130.63-1.23-198.55,7.06-294.64,24.79-612.34,224.75-766.72,445.05-7.3,9.8-17.9,22.83-17.42,34.65,1.41,13.64,19.69,15.97,32.2,16.77,111.77,1.36,223.62.08,335.42.51,83.76,0,167.52,0,251.28,0,26.56.01,53.1-.03,79.66.02,39.19-1.08,68.11,5.02,68.89,50.05,2.34,14.16-3.3,61.08,6.97,67.26h.06Z"/>
    <path class="cls-1" d="M3512.8,1528.74c-9.15.42-15.24-10.86-21.48-17.67-35.22-46.97-81.87-85.97-134.64-111.16-27.11-15.23-65.15-17.76-82.64-45.88-5.26-9.06-7.59-20.1-8.61-30.77-2.92-47.66-2.12-95.5-2.31-143.34.4-68.84,1.06-137.67.9-206.41.12-11.6.8-24.16,3.99-34.97,4.94-19.46,20.12-30.06,38.95-31.09,27.03-2.44,55.22-2.6,89.28-1.6,161.35,5.48,333.31,44.34,480.5,121.02,158.65,83.42,293.05,200.77,382.19,319.22,57.36,69.27,24.41,66.64-44.97,66.79-181.03-.05-362,0-543.02-.02-26.44.01-52.87-.03-79.32.02-39.8-.94-69.21,4.57-70.42,50.54-2.33,14.88,3.37,58.59-8.34,65.31l-.07.02Z"/>
    <path class="cls-1" d="M4294.39,920.61c12.37,8.75,11.35,23.17,11.59,38.82.03,72.55,0,179.24,0,233.42-.27,6.11,1.15,20.97-6.79,20.56-5.83-1.2-9.16-4.94-14.38-9.76-45.81-49.59-95.49-97.4-151-140.61-63.98-49.94-131.9-92.47-203.27-128.07-38.06-19.54-8.31-21.03,15.28-20.82,105.44.04,210.98-.13,316.51.06,10.56.05,23.73.72,31.93,6.31l.13.09Z"/>
    <path class="cls-1" d="M3063.8,1613.68c14.01-98.59,124.23-163.58,216.87-126.95,43.13,16.1,78.69,50.9,95.46,93.8,9.39,23.53,11.46,49.11,11.83,74.28,1.65,184.37.16,368.81.39,553.19-.19,14.03-.62,28.02-2.32,41.91-19.81,165.41-237,203.82-308.9,51.89-19.53-41.42-16.52-87.8-16.84-132.25.21-169.81-.46-339.72.21-509.54.21-15.42.79-30.89,3.27-46.14l.03-.2Z"/>
    <path class="cls-1" d="M2904.77,2862.73c83.36,18.72,192.17,35.21,319.71,34.26,125.29-.93,232.14-18.4,314.34-37.84-1.53-272.93-1.3-444.84,1.46-482.88.42-5.83,2.22-26.62-5.19-29.53-8-3.13-22.37,16.24-25.56,20.34-25.64,33.01-155.01,144.37-285.05,147.52-130.57,3.17-259.43-102.81-286.48-142.74-3.24-4.79-18.34-28.14-26.63-25.5-6.51,2.06-5.58,19.86-5.37,25.19,1.43,36.8.66,222.53-1.22,491.17Z"/>
  </g>
</svg>